<svg display="none" width="0" height="0" version="1.1" xmlns="http://www.w3.org/2000/svg" xmlns:xlink="http://www.w3.org/1999/xlink">
<defs>
<symbol id="icon-cog" viewBox="0 0 1024 1024">
	<title>cog</title>
	<path class="path1" d="M512 0q53 0 90.5 37.5t37.5 90.5v22q15.667 5.333 37.667 15.333l15.333-15.333q37.667-37.667 90.667-37.667 52.667 0 90.333 37.667t37.667 90.333q0 53-37.667 90.667l-15.333 15.333q10 22 15.333 37.667h22q53 0 90.5 37.5t37.5 90.5-37.5 90.5-90.5 37.5h-22q-5.333 15.667-15.333 37.667l15.333 15.333q37.667 37.667 37.667 90.667 0 52.667-37.667 90.333t-90.333 37.667q-53 0-90.667-37.667l-15.333-15.333q-22 10-37.667 15.333v22q0 53-37.5 90.5t-90.5 37.5-90.5-37.5-37.5-90.5v-22q-15.667-5.333-37.667-15.333l-15.333 15.333q-37.667 37.667-90.333 37.667-53 0-90.5-37.667t-37.5-90.333q0-53.333 37.333-90.667l15.333-15.333q-10-22-15.333-37.667h-22q-53 0-90.5-37.5t-37.5-90.5 37.5-90.5 90.5-37.5h22q5.333-15.667 15.333-37.667l-15.333-15.333q-37.333-37.333-37.333-90.667 0-52.667 37.5-90.333t90.5-37.667q52.667 0 90.333 37.667l15.333 15.333q22-10 37.667-15.333v-22q0-53 37.5-90.5t90.5-37.5zM512 85.333q-17.667 0-30.167 12.5t-12.5 30.167v88.333q-74.667 10.667-136.333 56.333l-62.333-62.333q-12.667-12.667-30-12.667-17.667 0-30.167 12.5t-12.5 30.167q0 18 12.333 30.333l62.333 62.333q-45.667 61.667-56.333 136.333h-88.333q-17.667 0-30.167 12.5t-12.5 30.167 12.5 30.167 30.167 12.5h88.333q10.667 74.667 56.333 136.333l-62.333 62.333q-12.333 12.333-12.333 30.333 0 17.667 12.5 30.167t30.167 12.5q17.333 0 30-12.667l62.333-62.333q61.667 45.667 136.333 56.333v88.333q0 17.667 12.5 30.167t30.167 12.5 30.167-12.5 12.5-30.167v-88.333q74.667-10.667 136.333-56.333l62.333 62.333q12.667 12.667 30.333 12.667t30.167-12.5 12.5-30.167-12.667-30.333l-62.333-62.333q45.667-61.667 56.333-136.333h88.333q17.667 0 30.167-12.5t12.5-30.167-12.5-30.167-30.167-12.5h-88.333q-10.667-74.667-56.333-136.333l62.333-62.333q12.667-12.667 12.667-30.333t-12.5-30.167-30.167-12.5-30.333 12.667l-62.333 62.333q-61.667-45.667-136.333-56.333v-88.333q0-17.667-12.5-30.167t-30.167-12.5zM512 341.333q70.667 0 120.667 50t50 120.667-50 120.667-120.667 50-120.667-50-50-120.667 50-120.667 120.667-50zM512 426.667q-35.333 0-60.333 25t-25 60.333 25 60.333 60.333 25 60.333-25 25-60.333-25-60.333-60.333-25z"></path>
</symbol>
<symbol id="icon-circle-check" viewBox="0 0 1024 1024">
	<title>circle-check</title>
	<path class="path1" d="M512 42.667q95.667 0 182.5 37.167t149.667 100 100 149.667 37.167 182.5-37.167 182.5-100 149.667-149.667 100-182.5 37.167-182.5-37.167-149.667-100-100-149.667-37.167-182.5 37.167-182.5 100-149.667 149.667-100 182.5-37.167zM512 128q-78 0-149.167 30.5t-122.5 81.833-81.833 122.5-30.5 149.167 30.5 149.167 81.833 122.5 122.5 81.833 149.167 30.5 149.167-30.5 122.5-81.833 81.833-122.5 30.5-149.167-30.5-149.167-81.833-122.5-122.5-81.833-149.167-30.5zM655.667 383.667q17.667 0 30.167 12.5t12.5 30.167-12.667 30.333l-181 181q-12.333 12.333-30 12.333-18 0-30.333-12.333l-90.667-90.333q-12.333-12.333-12.333-30.333 0-17.667 12.5-30.167t30.167-12.5 30.333 12.667l60.333 60.333 150.667-151q12.667-12.667 30.333-12.667z"></path>
</symbol>
<symbol id="icon-arrow-right" viewBox="0 0 1024 1024">
	<title>arrow-right</title>
	<path class="path1" d="M597.333 170.667q18 0 30.333 12.333l298.667 298.667q12.333 12.333 12.333 30.333t-12.333 30.333l-298.667 298.667q-12.333 12.333-30.333 12.333-18.333 0-30.5-12.167t-12.167-30.5q0-18 12.333-30.333l226-225.667h-665q-17.667 0-30.167-12.5t-12.5-30.167 12.5-30.167 30.167-12.5h665l-226-225.667q-12.333-12.333-12.333-30.333 0-18.333 12.167-30.5t30.5-12.167z"></path>
</symbol>
<symbol id="icon-loader" viewBox="0 0 1024 1024">
	<title>loader</title>
	<path class="path1" d="M693.333 650.333q17.333 0 30 12.667l120.667 120.667q12.667 12.667 12.667 30.333 0 17.333-12.667 30t-30 12.667q-17.667 0-30.333-12.667l-120.667-120.667q-12.333-12.333-12.333-30.333 0-17.667 12.5-30.167t30.167-12.5zM331 650.333q17.667 0 30.167 12.5t12.5 30.167-12.667 30.333l-120.667 120.667q-12.667 12.667-30 12.667-17.667 0-30.167-12.5t-12.5-30.167q0-18 12.333-30.333l120.667-120.667q12.667-12.667 30.333-12.667zM85.333 469.333h170.667q17.667 0 30.167 12.5t12.5 30.167-12.5 30.167-30.167 12.5h-170.667q-17.667 0-30.167-12.5t-12.5-30.167 12.5-30.167 30.167-12.5zM512 725.333q17.667 0 30.167 12.5t12.5 30.167v170.667q0 17.667-12.5 30.167t-30.167 12.5-30.167-12.5-12.5-30.167v-170.667q0-17.667 12.5-30.167t30.167-12.5zM210.333 167.333q17.333 0 30 12.667l120.667 120.667q12.667 12.667 12.667 30 0 17.667-12.5 30.167t-30.167 12.5q-18 0-30.333-12.333l-120.667-120.667q-12.333-12.333-12.333-30.333 0-17.667 12.5-30.167t30.167-12.5zM768 469.333h170.667q17.667 0 30.167 12.5t12.5 30.167-12.5 30.167-30.167 12.5h-170.667q-17.667 0-30.167-12.5t-12.5-30.167 12.5-30.167 30.167-12.5zM512 42.667q17.667 0 30.167 12.5t12.5 30.167v170.667q0 17.667-12.5 30.167t-30.167 12.5-30.167-12.5-12.5-30.167v-170.667q0-17.667 12.5-30.167t30.167-12.5zM814 167.333q17.333 0 30 12.667t12.667 30q0 17.667-12.667 30.333l-120.667 120.667q-12.333 12.333-30 12.333-18.333 0-30.5-12.167t-12.167-30.5q0-17.667 12.333-30l120.667-120.667q12.667-12.667 30.333-12.667z"></path>
</symbol>
<symbol id="icon-trash" viewBox="0 0 1024 1024">
	<title>trash</title>
	<path class="path1" d="M426.667 42.667h170.667q53 0 90.5 37.5t37.5 90.5v42.667h170.667q17.667 0 30.167 12.5t12.5 30.167-12.5 30.167-30.167 12.5h-42.667v512q0 53-37.5 90.5t-90.5 37.5h-426.667q-53 0-90.5-37.5t-37.5-90.5v-512h-42.667q-17.667 0-30.167-12.5t-12.5-30.167 12.5-30.167 30.167-12.5h170.667v-42.667q0-53 37.5-90.5t90.5-37.5zM768 810.667v-512h-512v512q0 17.667 12.5 30.167t30.167 12.5h426.667q17.667 0 30.167-12.5t12.5-30.167zM597.333 128h-170.667q-17.667 0-30.167 12.5t-12.5 30.167v42.667h256v-42.667q0-17.667-12.5-30.167t-30.167-12.5z"></path>
</symbol>
<symbol id="icon-plus" viewBox="0 0 1024 1024">
	<title>plus</title>
	<path class="path1" d="M512 85.333q17.667 0 30.167 12.5t12.5 30.167v341.333h341.333q17.667 0 30.167 12.5t12.5 30.167-12.5 30.167-30.167 12.5h-341.333v341.333q0 17.667-12.5 30.167t-30.167 12.5-30.167-12.5-12.5-30.167v-341.333h-341.333q-17.667 0-30.167-12.5t-12.5-30.167 12.5-30.167 30.167-12.5h341.333v-341.333q0-17.667 12.5-30.167t30.167-12.5z"></path>
</symbol>
<symbol id="icon-check" viewBox="0 0 1024 1024">
	<title>check</title>
	<path class="path1" d="M896 213.333q18.333 0 30.5 12.167t12.167 30.5q0 18-12.333 30.333l-512 512q-12.333 12.333-30.333 12.333t-30.333-12.333l-256-256q-12.333-12.333-12.333-30.333 0-18.333 12.167-30.5t30.5-12.167q18 0 30.333 12.333l225.667 226 481.667-482q12.333-12.333 30.333-12.333z"></path>
</symbol>
<symbol id="icon-move" viewBox="0 0 1024 1024">
	<title>move</title>
	<path class="path1" d="M512 0q18 0 30.333 12.333l150.667 151q12.667 12.667 12.667 30.333t-12.5 30.167-30.167 12.5-30.333-12.667l-78-78v323.667h323.667l-78-78q-12.667-12.667-12.667-30.333t12.5-30.167 30.167-12.5 30.333 12.667l151 150.667q12.333 12.333 12.333 30.333t-12.333 30l-151 151q-12.667 12.667-30.333 12.667t-30.167-12.5-12.5-30.167 12.667-30.333l78-78h-323.667v323.667l78-78q12.667-12.667 30.333-12.667t30.167 12.5 12.5 30.167-12.667 30.333l-150.667 151q-12.333 12.333-30.333 12.333-17.667 0-30-12.333l-151-151q-12.667-12.667-12.667-30.333t12.5-30.167 30.167-12.5 30.333 12.667l78 78v-323.667h-323.667l78 78q12.667 12.667 12.667 30.333t-12.5 30.167-30.167 12.5-30.333-12.667l-151-150.667q-12.333-12.333-12.333-30.333t12.333-30.333l151-150.667q12.667-12.667 30.333-12.667t30.167 12.5 12.5 30.167-12.667 30.333l-78 78h323.667v-323.667l-78 78q-12.667 12.667-30.333 12.667t-30.167-12.5-12.5-30.167 12.667-30.333l150.667-151q12.333-12.333 30.333-12.333z"></path>
</symbol>
</defs>
</svg>
